<?xml version="1.0" encoding="utf-8"?>
<!-- Generator: Adobe Illustrator 24.3.0, SVG Export Plug-In . SVG Version: 6.00 Build 0)  -->
<svg version="1.1" id="Layer_1" xmlns="http://www.w3.org/2000/svg" xmlns:xlink="http://www.w3.org/1999/xlink" x="0px" y="0px"
	 viewBox="0 0 400 200" style="enable-background:new 0 0 427.29 240.35;" xml:space="preserve">
<style type="text/css">
	.st0{fill:url(#SVGID_1_);}
	.st1{fill:url(#SVGID_2_);}
	.st2{fill:url(#SVGID_3_);}
	.st3{fill:url(#SVGID_4_);}
	.st4{fill:#1D1D1B;}
</style>
<g>
	<linearGradient id="SVGID_1_" gradientUnits="userSpaceOnUse" x1="157.5933" y1="119.051" x2="210.9122" y2="119.051">
		<stop  offset="0" style="stop-color:#4258A4"/>
		<stop  offset="0.2691" style="stop-color:#506EB3"/>
		<stop  offset="1" style="stop-color:#9ED7ED"/>
	</linearGradient>
	<polygon class="st0" points="193.14,101.28 175.37,119.05 157.59,136.82 193.14,136.82 210.91,119.05 	"/>
	<linearGradient id="SVGID_2_" gradientUnits="userSpaceOnUse" x1="157.5933" y1="92.3917" x2="228.6842" y2="92.3917">
		<stop  offset="0" style="stop-color:#698DC8"/>
		<stop  offset="0.583" style="stop-color:#4956A2"/>
		<stop  offset="0.7998" style="stop-color:#49519E"/>
		<stop  offset="1" style="stop-color:#484697"/>
	</linearGradient>
	<polygon class="st1" points="210.91,83.51 210.91,83.51 193.14,65.73 157.59,65.73 175.37,83.51 193.14,101.28 193.14,101.28 
		210.91,119.05 228.68,101.28 	"/>
	<linearGradient id="SVGID_3_" gradientUnits="userSpaceOnUse" x1="216.3781" y1="79.0618" x2="269.697" y2="79.0618">
		<stop  offset="0" style="stop-color:#DBAACF"/>
		<stop  offset="0.1571" style="stop-color:#C891C0"/>
		<stop  offset="0.4396" style="stop-color:#A867A7"/>
		<stop  offset="0.585" style="stop-color:#9C579E"/>
		<stop  offset="0.7374" style="stop-color:#96529B"/>
		<stop  offset="0.944" style="stop-color:#854393"/>
		<stop  offset="1" style="stop-color:#7F3E90"/>
	</linearGradient>
	<polygon class="st2" points="251.92,79.06 234.15,61.29 216.38,79.06 234.15,96.83 269.7,96.83 	"/>
	<linearGradient id="SVGID_4_" gradientUnits="userSpaceOnUse" x1="198.6041" y1="52.4026" x2="269.697" y2="52.4026">
		<stop  offset="0" style="stop-color:#4E368D"/>
		<stop  offset="0.1185" style="stop-color:#574495"/>
		<stop  offset="0.2716" style="stop-color:#5D4D9B"/>
		<stop  offset="0.4998" style="stop-color:#5F4F9C"/>
		<stop  offset="1" style="stop-color:#8F7EBA"/>
	</linearGradient>
	<polygon class="st3" points="269.7,25.74 234.15,25.74 216.38,43.52 216.38,43.52 198.6,61.29 216.38,79.06 216.38,43.52 
		216.38,43.52 216.38,79.06 234.15,61.29 234.15,61.29 251.92,43.52 	"/>
</g>
<g>
	<g>
		<path class="st4" d="M71.98,153.69H94.9v1.69H77.71v14.96h11.43v1.72H77.71v18.39H94.9v1.72H71.98V153.69z"/>
		<path class="st4" d="M101.37,153.69l26.42,29.56v-29.56h1.51v38.48h-1.68l-26.39-29.59v29.59h-1.53v-38.48H101.37z"/>
		<path class="st4" d="M136.73,153.69l26.42,29.56v-29.56h1.51v38.48h-1.68l-26.39-29.59v29.59h-1.53v-38.48H136.73z"/>
		<path class="st4" d="M170.4,153.69h22.92v1.69h-17.19v14.96h11.43v1.72h-11.43v18.39h17.19v1.72H170.4V153.69z"/>
		<path class="st4" d="M220.38,159.06c-0.85-0.75-1.73-1.41-2.66-1.96c-1.23-0.73-2.52-1.28-3.86-1.64
			c-1.31-0.32-2.64-0.48-3.98-0.48h-0.58c-0.81,0-1.63,0.11-2.43,0.32c-0.81,0.21-1.57,0.55-2.29,1.02c-0.56,0.36-1.06,0.8-1.5,1.34
			c-0.44,0.54-0.75,1.16-0.95,1.88c-0.1,0.45-0.14,0.89-0.14,1.32c0,0.21,0.03,0.54,0.08,0.97c0.06,0.43,0.23,0.94,0.52,1.53
			c0.42,0.82,0.94,1.58,1.58,2.26c0.64,0.68,1.31,1.27,2.01,1.77c1.34,0.95,2.72,1.83,4.12,2.66c0.19,0.13,0.38,0.24,0.55,0.35
			c1.02,0.61,2.03,1.23,3.02,1.87c0.99,0.64,1.95,1.33,2.88,2.08c0.75,0.61,1.45,1.29,2.11,2.05c0.66,0.76,1.21,1.6,1.65,2.51
			c0.64,1.27,0.96,2.62,0.96,4.05c0,0.18-0.01,0.37-0.02,0.56c-0.08,1.18-0.37,2.3-0.86,3.36c-0.46,0.98-1.06,1.85-1.8,2.59
			c-0.74,0.74-1.55,1.36-2.44,1.84c-1.04,0.59-2.14,1.02-3.3,1.29c-1.16,0.27-2.32,0.41-3.49,0.43h-0.55
			c-1.15,0-2.29-0.09-3.43-0.27c-1.28-0.2-2.53-0.54-3.74-1.02c-2.11-0.84-4-2.09-5.66-3.76l1.08-1.21
			c0.83,0.75,1.72,1.41,2.66,1.96c1.21,0.73,2.5,1.28,3.86,1.64c1.37,0.34,2.76,0.51,4.17,0.51h0.38c0.82-0.02,1.63-0.13,2.43-0.35
			c0.81-0.21,1.57-0.55,2.29-1.02c0.56-0.36,1.05-0.8,1.49-1.34c0.43-0.54,0.75-1.16,0.96-1.88c0.11-0.41,0.17-0.81,0.17-1.21
			c0-0.25-0.03-0.6-0.1-1.05s-0.24-0.97-0.53-1.56c-0.42-0.82-0.94-1.57-1.58-2.24c-0.64-0.67-1.32-1.27-2.04-1.79
			c-1.33-0.95-2.69-1.83-4.1-2.66c-0.19-0.12-0.39-0.25-0.6-0.38c-1.01-0.59-2-1.2-2.98-1.84c-0.98-0.64-1.94-1.33-2.86-2.08
			c-0.75-0.61-1.45-1.29-2.11-2.05c-0.66-0.76-1.21-1.6-1.65-2.51c-0.62-1.27-0.93-2.62-0.93-4.05c0-0.18,0-0.37,0-0.56
			c0.08-1.18,0.36-2.3,0.84-3.36c0.48-0.98,1.08-1.85,1.81-2.59s1.54-1.36,2.43-1.84c1.05-0.59,2.16-1.02,3.31-1.29
			s2.32-0.41,3.5-0.43h0.58c1.13,0,2.26,0.09,3.38,0.27c1.28,0.2,2.53,0.54,3.76,1.02c2.09,0.84,3.98,2.09,5.66,3.76L220.38,159.06z
			"/>
		<path class="st4" d="M249.53,159.06c-0.85-0.75-1.73-1.41-2.66-1.96c-1.23-0.73-2.52-1.28-3.86-1.64
			c-1.31-0.32-2.64-0.48-3.98-0.48h-0.58c-0.82,0-1.63,0.11-2.43,0.32s-1.57,0.55-2.29,1.02c-0.56,0.36-1.06,0.8-1.5,1.34
			s-0.75,1.16-0.95,1.88c-0.1,0.45-0.14,0.89-0.14,1.32c0,0.21,0.03,0.54,0.08,0.97s0.23,0.94,0.52,1.53
			c0.42,0.82,0.94,1.58,1.58,2.26c0.64,0.68,1.31,1.27,2.01,1.77c1.34,0.95,2.72,1.83,4.12,2.66c0.19,0.13,0.38,0.24,0.55,0.35
			c1.02,0.61,2.03,1.23,3.02,1.87c0.99,0.64,1.95,1.33,2.88,2.08c0.75,0.61,1.45,1.29,2.11,2.05c0.66,0.76,1.21,1.6,1.65,2.51
			c0.64,1.27,0.96,2.62,0.96,4.05c0,0.18-0.01,0.37-0.02,0.56c-0.08,1.18-0.37,2.3-0.86,3.36c-0.46,0.98-1.06,1.85-1.8,2.59
			c-0.74,0.74-1.55,1.36-2.45,1.84c-1.04,0.59-2.14,1.02-3.3,1.29c-1.16,0.27-2.32,0.41-3.49,0.43h-0.55
			c-1.15,0-2.29-0.09-3.43-0.27c-1.28-0.2-2.53-0.54-3.74-1.02c-2.11-0.84-4-2.09-5.66-3.76l1.08-1.21
			c0.83,0.75,1.72,1.41,2.66,1.96c1.21,0.73,2.5,1.28,3.86,1.64c1.37,0.34,2.76,0.51,4.17,0.51h0.38c0.81-0.02,1.63-0.13,2.43-0.35
			s1.57-0.55,2.29-1.02c0.56-0.36,1.05-0.8,1.49-1.34s0.75-1.16,0.96-1.88c0.11-0.41,0.17-0.81,0.17-1.21c0-0.25-0.03-0.6-0.1-1.05
			c-0.06-0.45-0.24-0.97-0.53-1.56c-0.42-0.82-0.94-1.57-1.58-2.24c-0.64-0.67-1.32-1.27-2.04-1.79c-1.33-0.95-2.69-1.83-4.1-2.66
			c-0.19-0.12-0.39-0.25-0.6-0.38c-1.01-0.59-2-1.2-2.98-1.84c-0.98-0.64-1.94-1.33-2.86-2.08c-0.75-0.61-1.45-1.29-2.11-2.05
			c-0.66-0.76-1.21-1.6-1.65-2.51c-0.62-1.27-0.94-2.62-0.94-4.05c0-0.18,0-0.37,0-0.56c0.08-1.18,0.36-2.3,0.84-3.36
			c0.48-0.98,1.08-1.85,1.81-2.59c0.73-0.74,1.54-1.36,2.43-1.84c1.05-0.59,2.16-1.02,3.31-1.29s2.32-0.41,3.5-0.43h0.58
			c1.13,0,2.26,0.09,3.38,0.27c1.28,0.2,2.53,0.54,3.76,1.02c2.09,0.84,3.98,2.09,5.66,3.76L249.53,159.06z"/>
		<path class="st4" d="M259.76,178.9l-5.51,13.26h-1.68l16.01-38.48h1.68l16.01,38.48h-6.33l-5.51-13.26H259.76z M267.1,161.29
			l-6.62,15.92h13.23L267.1,161.29z"/>
		<path class="st4" d="M297.3,178.9l-5.51,13.26h-1.68l16.01-38.48h1.68l16.01,38.48h-6.33l-5.51-13.26H297.3z M304.64,161.29
			l-6.62,15.92h13.23L304.64,161.29z"/>
		<path class="st4" d="M328.13,192.17v-38.48h16.35c1.79,0,3.42,0.49,4.89,1.48c1.47,0.99,2.64,2.3,3.52,3.95
			c0.88,1.65,1.32,3.47,1.32,5.48s-0.44,3.83-1.32,5.48c-0.88,1.65-2.05,2.96-3.52,3.95c-1.47,0.98-3.1,1.48-4.89,1.48l10.83,16.67
			h-7.09l-10.83-16.67h-3.52v16.67H328.13z M333.86,173.8h6.42c2.27,0,4.21-0.9,5.81-2.71c1.61-1.81,2.41-3.97,2.41-6.5
			c0-2.54-0.8-4.71-2.41-6.51c-1.61-1.8-3.54-2.7-5.81-2.7h-6.42V173.8z"/>
	</g>
	
</g>
</svg>
